<svg width="133" height="39" viewBox="0 0 133 39" fill="none" xmlns="http://www.w3.org/2000/svg">
<path d="M14.9102 13.2587C14.7794 12.1543 14.249 11.2969 13.3189 10.6865C12.3888 10.0762 11.248 9.77098 9.89652 9.77098C8.90833 9.77098 8.04365 9.93084 7.3025 10.2505C6.56862 10.5703 5.99459 11.0099 5.58042 11.5694C5.17351 12.1289 4.97006 12.7646 4.97006 13.4767C4.97006 14.0726 5.11175 14.5848 5.39513 15.0135C5.68578 15.435 6.05635 15.7874 6.50686 16.0708C6.95736 16.3469 7.42966 16.5757 7.92376 16.7574C8.41786 16.9318 8.87199 17.0735 9.28617 17.1825L11.5532 17.7928C12.1345 17.9454 12.7812 18.1561 13.4933 18.425C14.2126 18.6938 14.8993 19.0608 15.5532 19.5258C16.2145 19.9836 16.7594 20.5721 17.1881 21.2915C17.6168 22.0108 17.8312 22.8937 17.8312 23.94C17.8312 25.1462 17.5151 26.2361 16.8829 27.2098C16.2581 28.1835 15.3425 28.9573 14.1363 29.5313C12.9374 30.1054 11.4805 30.3924 9.76573 30.3924C8.16718 30.3924 6.78297 30.1344 5.61312 29.6185C4.45053 29.1026 3.53499 28.3833 2.8665 27.4605C2.20528 26.5377 1.83108 25.4659 1.74388 24.2452H4.53409C4.60675 25.0881 4.89013 25.7856 5.38423 26.3378C5.8856 26.8828 6.51776 27.2897 7.2807 27.5586C8.05092 27.8201 8.87926 27.9509 9.76573 27.9509C10.7975 27.9509 11.724 27.7838 12.545 27.4496C13.3661 27.1081 14.0164 26.6358 14.496 26.0327C14.9756 25.4223 15.2154 24.7102 15.2154 23.8964C15.2154 23.1553 15.0083 22.5522 14.5941 22.0871C14.1799 21.6221 13.635 21.2443 12.9592 20.9536C12.2835 20.663 11.5532 20.4087 10.7685 20.1907L8.02185 19.4059C6.27797 18.9046 4.8974 18.1888 3.88014 17.2588C2.86287 16.3287 2.35424 15.1116 2.35424 13.6075C2.35424 12.3577 2.69212 11.2678 3.36787 10.3377C4.05089 9.40041 4.96643 8.67379 6.11448 8.15789C7.2698 7.63473 8.55955 7.37314 9.98372 7.37314C11.4224 7.37314 12.7013 7.63109 13.8203 8.14699C14.9392 8.65562 15.8257 9.35317 16.4797 10.2396C17.1409 11.1261 17.4897 12.1325 17.526 13.2587H14.9102ZM21.9266 36.278V13.2587H24.4116V15.9182H24.7168C24.9057 15.6275 25.1673 15.2569 25.5015 14.8064C25.843 14.3487 26.3299 13.9418 26.962 13.5857C27.6015 13.2224 28.4661 13.0408 29.5561 13.0408C30.9657 13.0408 32.2082 13.3932 33.2836 14.098C34.359 14.8028 35.1982 15.8019 35.8013 17.0953C36.4044 18.3887 36.706 19.9146 36.706 21.673C36.706 23.4459 36.4044 24.9827 35.8013 26.2834C35.1982 27.5767 34.3626 28.5795 33.2945 29.2915C32.2264 29.9964 30.9948 30.3488 29.5997 30.3488C28.5243 30.3488 27.6632 30.1708 27.0165 29.8147C26.3698 29.4514 25.8721 29.0409 25.5233 28.5831C25.1746 28.1181 24.9057 27.733 24.7168 27.4278H24.4988V36.278H21.9266ZM24.4552 21.6294C24.4552 22.8937 24.6405 24.009 25.0111 24.9754C25.3816 25.9346 25.923 26.6866 26.6351 27.2316C27.3471 27.7693 28.2191 28.0381 29.2509 28.0381C30.3263 28.0381 31.2236 27.7548 31.943 27.188C32.6696 26.614 33.2146 25.8438 33.5779 24.8773C33.9485 23.9037 34.1337 22.821 34.1337 21.6294C34.1337 20.4523 33.9521 19.3914 33.5888 18.4468C33.2327 17.4949 32.6914 16.7429 31.9648 16.1906C31.2454 15.6311 30.3408 15.3514 29.2509 15.3514C28.2045 15.3514 27.3253 15.6166 26.6133 16.147C25.9012 16.6702 25.3635 17.4041 25.0002 18.3487C24.6369 19.286 24.4552 20.3796 24.4552 21.6294ZM75.1585 30V13.2587H77.6436V15.7874H77.818C78.1231 14.959 78.6754 14.2869 79.4747 13.771C80.2739 13.2551 81.1749 12.9972 82.1777 12.9972C82.3666 12.9972 82.6027 13.0008 82.8861 13.0081C83.1695 13.0153 83.3839 13.0262 83.5292 13.0408V15.6566C83.442 15.6348 83.2422 15.6021 82.9297 15.5585C82.6245 15.5076 82.3012 15.4822 81.9597 15.4822C81.1459 15.4822 80.4193 15.6529 79.7798 15.9945C79.1477 16.3287 78.6463 16.7937 78.2757 17.3896C77.9124 17.9781 77.7308 18.6502 77.7308 19.4059V30H75.1585ZM94.908 13.2587V15.4386H86.2322V13.2587H94.908ZM88.7608 9.24782H91.333V25.2043C91.333 25.9309 91.4384 26.4759 91.6491 26.8392C91.8671 27.1953 92.1432 27.435 92.4775 27.5586C92.819 27.6748 93.1787 27.733 93.5565 27.733C93.8399 27.733 94.0724 27.7184 94.254 27.6894C94.4357 27.653 94.581 27.624 94.69 27.6022L95.2132 29.9128C95.0388 29.9782 94.7954 30.0436 94.4829 30.109C94.1705 30.1817 93.7745 30.218 93.2949 30.218C92.5683 30.218 91.8562 30.0618 91.1587 29.7493C90.4684 29.4369 89.8943 28.9609 89.4366 28.3215C88.9861 27.6821 88.7608 26.8755 88.7608 25.9019V9.24782ZM98.7772 30V13.2587H101.349V30H98.7772ZM100.085 10.4685C99.5838 10.4685 99.1514 10.2978 98.7881 9.95627C98.4321 9.61476 98.2541 9.20422 98.2541 8.72465C98.2541 8.24509 98.4321 7.83455 98.7881 7.49304C99.1514 7.15153 99.5838 6.98077 100.085 6.98077C100.587 6.98077 101.015 7.15153 101.371 7.49304C101.735 7.83455 101.916 8.24509 101.916 8.72465C101.916 9.20422 101.735 9.61476 101.371 9.95627C101.015 10.2978 100.587 10.4685 100.085 10.4685ZM113.516 13.2587V15.4386H104.491V13.2587H113.516ZM107.194 30V10.9481C107.194 9.98897 107.419 9.18969 107.87 8.55026C108.32 7.91084 108.905 7.43127 109.625 7.11156C110.344 6.79185 111.103 6.63199 111.903 6.63199C112.535 6.63199 113.051 6.68286 113.45 6.78458C113.85 6.88631 114.148 6.98077 114.344 7.06796L113.603 9.29141C113.472 9.24782 113.291 9.19332 113.058 9.12792C112.833 9.06253 112.535 9.02983 112.164 9.02983C111.314 9.02983 110.7 9.24418 110.322 9.67289C109.952 10.1016 109.766 10.7301 109.766 11.5585V30H107.194ZM118.777 36.278C118.341 36.278 117.953 36.2416 117.611 36.169C117.27 36.1036 117.033 36.0382 116.903 35.9728L117.557 33.7057C118.182 33.8656 118.734 33.9237 119.213 33.8801C119.693 33.8365 120.118 33.6222 120.489 33.2371C120.866 32.8592 121.212 32.2452 121.524 31.3951L122.004 30.0872L115.813 13.2587H118.603L123.224 26.5994H123.399L128.02 13.2587H130.81L123.704 32.4414C123.384 33.3061 122.988 34.0218 122.516 34.5886C122.044 35.1626 121.495 35.5877 120.87 35.8638C120.252 36.1399 119.555 36.278 118.777 36.278Z" fill="black"/>
<circle cx="55.5636" cy="19.8442" r="13.8248" fill="#CCE5E8" stroke="#254F5A" stroke-width="1.45524"/>
<mask id="path-3-outside-1_205_197" maskUnits="userSpaceOnUse" x="40.3057" y="5.21785" width="30" height="29" fill="black">
<rect fill="white" x="40.3057" y="5.21785" width="30" height="29"/>
<path fill-rule="evenodd" clip-rule="evenodd" d="M52.3885 7.01162C52.9747 7.79313 53.3647 8.72445 54.2746 11.4542C54.5496 12.2792 54.7656 13.133 54.9864 14.006L54.9864 14.006C55.0235 14.1525 55.0607 14.2996 55.0984 14.4472C55.3568 15.4602 55.635 16.4924 56.0263 17.4487C56.7131 19.1278 57.7644 20.605 59.6871 21.4496C59.2879 22.1328 58.8529 22.8051 58.3799 23.4597C51.7521 19.874 47.4068 14.1588 45.5543 10.9168L44.4056 11.5732C46.2998 14.888 50.7413 20.7692 57.5642 24.5231C57.258 24.899 56.938 25.2674 56.6037 25.6268C55.5619 25.2666 54.2592 25.1454 53.2143 25.1073C52.5713 25.0839 51.9915 25.0914 51.5726 25.1047C51.3628 25.1114 51.1926 25.1195 51.074 25.126C51.0147 25.1293 50.9682 25.1321 50.9361 25.1342L50.9139 25.1357L50.9135 25.1357C50.8971 25.1355 50.8712 25.1349 50.8364 25.1337C50.7667 25.1314 50.6613 25.1267 50.5256 25.117C50.2537 25.0975 49.8611 25.0584 49.3883 24.9796C48.4394 24.8214 47.1843 24.5064 45.9372 23.8828C45.7513 23.7899 45.1396 23.3847 44.3474 22.8464C44.0947 22.6747 43.8288 22.4931 43.562 22.3109L43.562 22.3108C43.0246 21.9438 42.4835 21.5742 42.0395 21.2782L41.3057 22.379C41.7436 22.671 42.2733 23.0328 42.8067 23.3971C43.0752 23.5805 43.3447 23.7645 43.6038 23.9406C44.347 24.4456 45.0582 24.9224 45.3456 25.0661C46.7444 25.7655 48.1352 26.1119 49.1708 26.2845C49.6901 26.3711 50.1243 26.4146 50.4313 26.4365C50.5849 26.4475 50.707 26.4531 50.7923 26.4559C50.835 26.4574 50.8685 26.4581 50.8922 26.4585L50.9203 26.4588L50.9287 26.4589L50.9314 26.4589L50.9324 26.4589H50.9328C50.933 26.4589 50.9332 26.4589 50.9332 25.7974V26.4589H50.9576L50.9817 26.4571L50.9818 26.4571L50.9819 26.4571L50.9819 26.4571L50.9834 26.457L50.9907 26.4565L51.0218 26.4544C51.0498 26.4526 51.0919 26.45 51.1466 26.447C51.2562 26.4409 51.4161 26.4333 51.6145 26.427C52.012 26.4144 52.5607 26.4074 53.1662 26.4294C53.967 26.4586 54.8135 26.5375 55.5337 26.6987C53.5246 28.5725 51.0655 30.1274 48.0783 31.1232L48.4967 32.3782C51.9193 31.2373 54.6859 29.408 56.8998 27.2208C57.6871 27.6927 58.588 28.514 59.195 29.4846C59.8822 30.5834 60.1202 31.7418 59.6022 32.7778L60.7854 33.3694C61.5904 31.7596 61.1341 30.0903 60.3166 28.7831C59.6613 27.7352 58.7272 26.8352 57.8313 26.2445C58.1541 25.8857 58.4636 25.5193 58.7603 25.1465C61.3272 26.4108 64.2045 27.3615 67.3844 27.7763L67.5556 26.4644C64.6268 26.0824 61.9624 25.2197 59.571 24.0684C60.0792 23.3531 60.5439 22.6199 60.9679 21.8771C61.8256 22.0659 63.0655 22.1232 64.3232 21.8088C65.8473 21.4278 67.12 20.3093 67.9944 19.1726C68.4372 18.5969 68.7952 17.9946 69.0451 17.4382C69.2879 16.8974 69.4545 16.3425 69.4545 15.8753H68.1316C68.1316 16.0696 68.0501 16.4243 67.8382 16.8963C67.6333 17.3528 67.3298 17.8668 66.9458 18.366C66.1665 19.3791 65.124 20.245 64.0023 20.5254C63.1326 20.7428 62.2743 20.7416 61.6272 20.6517C63.815 16.3318 64.7175 11.8153 64.8239 8.62121L63.5017 8.57714C63.3992 11.6535 62.5072 16.0837 60.3286 20.2849C58.7269 19.6189 57.8587 18.4339 57.2507 16.9478C56.8978 16.0851 56.6386 15.1329 56.3802 14.1202C56.3439 13.9779 56.3076 13.8342 56.2711 13.6896L56.2709 13.6891C56.0508 12.8185 55.8215 11.9113 55.5297 11.0359C54.6323 8.34393 54.1837 7.20027 53.4469 6.21785L52.3885 7.01162Z"/>
</mask>
<path fill-rule="evenodd" clip-rule="evenodd" d="M52.3885 7.01162C52.9747 7.79313 53.3647 8.72445 54.2746 11.4542C54.5496 12.2792 54.7656 13.133 54.9864 14.006L54.9864 14.006C55.0235 14.1525 55.0607 14.2996 55.0984 14.4472C55.3568 15.4602 55.635 16.4924 56.0263 17.4487C56.7131 19.1278 57.7644 20.605 59.6871 21.4496C59.2879 22.1328 58.8529 22.8051 58.3799 23.4597C51.7521 19.874 47.4068 14.1588 45.5543 10.9168L44.4056 11.5732C46.2998 14.888 50.7413 20.7692 57.5642 24.5231C57.258 24.899 56.938 25.2674 56.6037 25.6268C55.5619 25.2666 54.2592 25.1454 53.2143 25.1073C52.5713 25.0839 51.9915 25.0914 51.5726 25.1047C51.3628 25.1114 51.1926 25.1195 51.074 25.126C51.0147 25.1293 50.9682 25.1321 50.9361 25.1342L50.9139 25.1357L50.9135 25.1357C50.8971 25.1355 50.8712 25.1349 50.8364 25.1337C50.7667 25.1314 50.6613 25.1267 50.5256 25.117C50.2537 25.0975 49.8611 25.0584 49.3883 24.9796C48.4394 24.8214 47.1843 24.5064 45.9372 23.8828C45.7513 23.7899 45.1396 23.3847 44.3474 22.8464C44.0947 22.6747 43.8288 22.4931 43.562 22.3109L43.562 22.3108C43.0246 21.9438 42.4835 21.5742 42.0395 21.2782L41.3057 22.379C41.7436 22.671 42.2733 23.0328 42.8067 23.3971C43.0752 23.5805 43.3447 23.7645 43.6038 23.9406C44.347 24.4456 45.0582 24.9224 45.3456 25.0661C46.7444 25.7655 48.1352 26.1119 49.1708 26.2845C49.6901 26.3711 50.1243 26.4146 50.4313 26.4365C50.5849 26.4475 50.707 26.4531 50.7923 26.4559C50.835 26.4574 50.8685 26.4581 50.8922 26.4585L50.9203 26.4588L50.9287 26.4589L50.9314 26.4589L50.9324 26.4589H50.9328C50.933 26.4589 50.9332 26.4589 50.9332 25.7974V26.4589H50.9576L50.9817 26.4571L50.9818 26.4571L50.9819 26.4571L50.9819 26.4571L50.9834 26.457L50.9907 26.4565L51.0218 26.4544C51.0498 26.4526 51.0919 26.45 51.1466 26.447C51.2562 26.4409 51.4161 26.4333 51.6145 26.427C52.012 26.4144 52.5607 26.4074 53.1662 26.4294C53.967 26.4586 54.8135 26.5375 55.5337 26.6987C53.5246 28.5725 51.0655 30.1274 48.0783 31.1232L48.4967 32.3782C51.9193 31.2373 54.6859 29.408 56.8998 27.2208C57.6871 27.6927 58.588 28.514 59.195 29.4846C59.8822 30.5834 60.1202 31.7418 59.6022 32.7778L60.7854 33.3694C61.5904 31.7596 61.1341 30.0903 60.3166 28.7831C59.6613 27.7352 58.7272 26.8352 57.8313 26.2445C58.1541 25.8857 58.4636 25.5193 58.7603 25.1465C61.3272 26.4108 64.2045 27.3615 67.3844 27.7763L67.5556 26.4644C64.6268 26.0824 61.9624 25.2197 59.571 24.0684C60.0792 23.3531 60.5439 22.6199 60.9679 21.8771C61.8256 22.0659 63.0655 22.1232 64.3232 21.8088C65.8473 21.4278 67.12 20.3093 67.9944 19.1726C68.4372 18.5969 68.7952 17.9946 69.0451 17.4382C69.2879 16.8974 69.4545 16.3425 69.4545 15.8753H68.1316C68.1316 16.0696 68.0501 16.4243 67.8382 16.8963C67.6333 17.3528 67.3298 17.8668 66.9458 18.366C66.1665 19.3791 65.124 20.245 64.0023 20.5254C63.1326 20.7428 62.2743 20.7416 61.6272 20.6517C63.815 16.3318 64.7175 11.8153 64.8239 8.62121L63.5017 8.57714C63.3992 11.6535 62.5072 16.0837 60.3286 20.2849C58.7269 19.6189 57.8587 18.4339 57.2507 16.9478C56.8978 16.0851 56.6386 15.1329 56.3802 14.1202C56.3439 13.9779 56.3076 13.8342 56.2711 13.6896L56.2709 13.6891C56.0508 12.8185 55.8215 11.9113 55.5297 11.0359C54.6323 8.34393 54.1837 7.20027 53.4469 6.21785L52.3885 7.01162Z" fill="#254F5A"/>
<path d="M54.2746 11.4542L54.4001 11.4124L54.4001 11.4124L54.2746 11.4542ZM52.3885 7.01162L52.3092 6.90578L52.2033 6.98516L52.2827 7.09099L52.3885 7.01162ZM54.9864 14.006L54.8582 14.0385L54.8603 14.047L54.8636 14.0551L54.9864 14.006ZM54.9864 14.006L55.1147 13.9736L55.1125 13.965L55.1093 13.9569L54.9864 14.006ZM55.0984 14.4472L55.2265 14.4145L55.2265 14.4145L55.0984 14.4472ZM56.0263 17.4487L56.1487 17.3986L56.1487 17.3986L56.0263 17.4487ZM59.6871 21.4496L59.8014 21.5164L59.8763 21.3882L59.7403 21.3285L59.6871 21.4496ZM58.3799 23.4597L58.3169 23.5761L58.4191 23.6313L58.4871 23.5372L58.3799 23.4597ZM45.5543 10.9168L45.6691 10.8512L45.6035 10.7363L45.4886 10.802L45.5543 10.9168ZM44.4056 11.5732L44.34 11.4583L44.2251 11.524L44.2908 11.6388L44.4056 11.5732ZM57.5642 24.5231L57.6667 24.6066L57.7669 24.4836L57.6279 24.4072L57.5642 24.5231ZM56.6037 25.6268L56.5605 25.7518L56.6419 25.78L56.7006 25.7169L56.6037 25.6268ZM53.2143 25.1073L53.2095 25.2395L53.2095 25.2395L53.2143 25.1073ZM51.5726 25.1047L51.5768 25.2369L51.5768 25.2369L51.5726 25.1047ZM51.074 25.126L51.0812 25.2581L51.0812 25.2581L51.074 25.126ZM50.9361 25.1342L50.9276 25.0022L50.9273 25.0022L50.9361 25.1342ZM50.9139 25.1357L50.9118 25.2684L50.9227 25.2677L50.9139 25.1357ZM50.9135 25.1357L50.9114 25.268L50.9115 25.268L50.9135 25.1357ZM50.8364 25.1337L50.8408 25.0015L50.8408 25.0015L50.8364 25.1337ZM50.5256 25.117L50.5161 25.2489L50.5161 25.2489L50.5256 25.117ZM49.3883 24.9796L49.41 24.8491L49.41 24.8491L49.3883 24.9796ZM45.9372 23.8828L45.8781 24.0012L45.8781 24.0012L45.9372 23.8828ZM44.3474 22.8464L44.4217 22.737L44.4217 22.737L44.3474 22.8464ZM43.562 22.3109L43.6369 22.2013L43.6276 22.196L43.562 22.3109ZM43.562 22.3108L43.4871 22.4204L43.4963 22.4257L43.562 22.3108ZM42.0395 21.2782L42.1129 21.1681L42.0028 21.0948L41.9294 21.2048L42.0395 21.2782ZM41.3057 22.379L41.1956 22.3056L41.1222 22.4157L41.2323 22.489L41.3057 22.379ZM42.8067 23.3971L42.8813 23.2878L42.8813 23.2878L42.8067 23.3971ZM43.6038 23.9406L43.5295 24.0501L43.5295 24.0501L43.6038 23.9406ZM45.3456 25.0661L45.2864 25.1844L45.2864 25.1844L45.3456 25.0661ZM49.1708 26.2845L49.1925 26.154L49.1925 26.154L49.1708 26.2845ZM50.4313 26.4365L50.4407 26.3046L50.4407 26.3046L50.4313 26.4365ZM50.7923 26.4559L50.7967 26.3237L50.7967 26.3237L50.7923 26.4559ZM50.8922 26.4585L50.89 26.5908L50.8905 26.5908L50.8922 26.4585ZM50.9203 26.4588L50.9186 26.5911L50.9195 26.5911L50.9203 26.4588ZM50.9287 26.4589L50.9278 26.5912L50.9283 26.5912L50.9287 26.4589ZM50.9314 26.4589L50.931 26.5912L50.9312 26.5912L50.9314 26.4589ZM50.9324 26.4589L50.9322 26.5912H50.9324V26.4589ZM50.9332 26.4589H50.8009V26.5912H50.9332V26.4589ZM50.9576 26.4589V26.5916L50.9673 26.5908L50.9576 26.4589ZM50.9817 26.4571L50.9915 26.5891L50.9952 26.5887L50.9817 26.4571ZM50.9818 26.4571L50.9721 26.3251L50.9683 26.3255L50.9818 26.4571ZM50.9819 26.4571L50.9739 26.325L50.9722 26.3252L50.9819 26.4571ZM50.9819 26.4571L50.9899 26.5892L50.9914 26.5891L50.9819 26.4571ZM50.9834 26.457L50.9741 26.325L50.9739 26.325L50.9834 26.457ZM50.9907 26.4565L50.9818 26.3245L50.9814 26.3245L50.9907 26.4565ZM51.0218 26.4544L51.0132 26.3224L51.013 26.3224L51.0218 26.4544ZM51.1466 26.447L51.1394 26.3149L51.1394 26.3149L51.1466 26.447ZM51.6145 26.427L51.6103 26.2948L51.6103 26.2948L51.6145 26.427ZM53.1662 26.4294L53.171 26.2972L53.171 26.2972L53.1662 26.4294ZM55.5337 26.6987L55.6239 26.7954L55.8074 26.6244L55.5626 26.5696L55.5337 26.6987ZM48.0783 31.1232L48.0365 30.9977L47.911 31.0395L47.9528 31.165L48.0783 31.1232ZM48.4967 32.3782L48.3712 32.4201L48.413 32.5456L48.5385 32.5037L48.4967 32.3782ZM56.8998 27.2208L56.9678 27.1074L56.8798 27.0546L56.8068 27.1267L56.8998 27.2208ZM59.195 29.4846L59.0828 29.5547L59.0828 29.5547L59.195 29.4846ZM59.6022 32.7778L59.4838 32.7186L59.4247 32.837L59.543 32.8961L59.6022 32.7778ZM60.7854 33.3694L60.7263 33.4878L60.8446 33.5469L60.9038 33.4286L60.7854 33.3694ZM60.3166 28.7831L60.4288 28.713L60.4288 28.713L60.3166 28.7831ZM57.8313 26.2445L57.733 26.156L57.6301 26.2703L57.7585 26.3549L57.8313 26.2445ZM58.7603 25.1465L58.8188 25.0278L58.7232 24.9807L58.6568 25.0641L58.7603 25.1465ZM67.3844 27.7763L67.3673 27.9075L67.4985 27.9246L67.5156 27.7934L67.3844 27.7763ZM67.5556 26.4644L67.6867 26.4816L67.7038 26.3504L67.5727 26.3333L67.5556 26.4644ZM59.571 24.0684L59.4631 23.9918L59.3723 24.1196L59.5136 24.1876L59.571 24.0684ZM60.9679 21.8771L60.9964 21.7479L60.9013 21.727L60.853 21.8115L60.9679 21.8771ZM64.3232 21.8088L64.2911 21.6805L64.2911 21.6805L64.3232 21.8088ZM67.9944 19.1726L68.0993 19.2533L68.0993 19.2533L67.9944 19.1726ZM69.0451 17.4382L68.9244 17.384L68.9244 17.384L69.0451 17.4382ZM69.4545 15.8753H69.5868V15.743H69.4545V15.8753ZM68.1316 15.8753V15.743H67.9993V15.8753H68.1316ZM67.8382 16.8963L67.7175 16.8422L67.7175 16.8422L67.8382 16.8963ZM66.9458 18.366L66.8409 18.2853L66.8409 18.2853L66.9458 18.366ZM64.0023 20.5254L63.9702 20.3971L63.9702 20.3971L64.0023 20.5254ZM61.6272 20.6517L61.5092 20.5919L61.4254 20.7572L61.609 20.7827L61.6272 20.6517ZM64.8239 8.62121L64.9562 8.62562L64.9606 8.4934L64.8284 8.48899L64.8239 8.62121ZM63.5017 8.57714L63.5061 8.44491L63.3739 8.44051L63.3695 8.57273L63.5017 8.57714ZM60.3286 20.2849L60.2778 20.4071L60.3901 20.4538L60.446 20.3458L60.3286 20.2849ZM57.2507 16.9478L57.1283 16.9979L57.1283 16.9979L57.2507 16.9478ZM56.3802 14.1202L56.5084 14.0875L56.5084 14.0875L56.3802 14.1202ZM56.2711 13.6896L56.3993 13.6572L56.3993 13.6569L56.2711 13.6896ZM56.2709 13.6891L56.1427 13.7215L56.1427 13.7217L56.2709 13.6891ZM55.5297 11.0359L55.6552 10.994L55.6552 10.994L55.5297 11.0359ZM53.4469 6.21785L53.5527 6.13847L53.4733 6.03264L53.3675 6.11201L53.4469 6.21785ZM54.4001 11.4124C53.4915 8.68652 53.0956 7.73387 52.4944 6.93224L52.2827 7.09099C52.8537 7.85238 53.2379 8.76238 54.1491 11.496L54.4001 11.4124ZM55.1147 13.9736C54.8941 13.1014 54.6769 12.2428 54.4001 11.4124L54.1491 11.496C54.4223 12.3156 54.6371 13.1646 54.8582 14.0385L55.1147 13.9736ZM55.1093 13.9569L55.1093 13.9569L54.8636 14.0551L54.8636 14.0552L55.1093 13.9569ZM55.2265 14.4145C55.1889 14.2671 55.1518 14.1201 55.1147 13.9736L54.8582 14.0385C54.8952 14.185 54.9325 14.3322 54.9702 14.4799L55.2265 14.4145ZM56.1487 17.3986C55.7613 16.4516 55.4849 15.4274 55.2265 14.4145L54.9702 14.4799C55.2286 15.4929 55.5087 16.5331 55.9038 17.4988L56.1487 17.3986ZM59.7403 21.3285C57.859 20.5021 56.8274 19.0577 56.1487 17.3986L55.9038 17.4988C56.5989 19.1978 57.6697 20.7079 59.6339 21.5707L59.7403 21.3285ZM58.4871 23.5372C58.9628 22.879 59.4001 22.2031 59.8014 21.5164L59.5729 21.3829C59.1757 22.0626 58.743 22.7313 58.2727 23.3822L58.4871 23.5372ZM45.4394 10.9825C47.3001 14.2386 51.6611 19.9753 58.3169 23.5761L58.4428 23.3434C51.843 19.7728 47.5136 14.079 45.6691 10.8512L45.4394 10.9825ZM44.4713 11.6881L45.6199 11.0317L45.4886 10.802L44.34 11.4583L44.4713 11.6881ZM57.6279 24.4072C50.8327 20.6684 46.4066 14.8083 44.5205 11.5076L44.2908 11.6388C46.1929 14.9676 50.65 20.8699 57.5004 24.639L57.6279 24.4072ZM56.7006 25.7169C57.0369 25.3553 57.3588 24.9848 57.6667 24.6066L57.4616 24.4395C57.1572 24.8133 56.8391 25.1795 56.5068 25.5367L56.7006 25.7169ZM53.2095 25.2395C54.2514 25.2775 55.538 25.3983 56.5605 25.7518L56.6469 25.5018C55.5859 25.1349 54.2669 25.0133 53.2191 24.9751L53.2095 25.2395ZM51.5768 25.2369C51.9936 25.2237 52.5703 25.2163 53.2095 25.2395L53.2191 24.9751C52.5724 24.9516 51.9895 24.9591 51.5684 24.9725L51.5768 25.2369ZM51.0812 25.2581C51.1989 25.2516 51.3681 25.2436 51.5768 25.2369L51.5684 24.9725C51.3575 24.9792 51.1862 24.9874 51.0667 24.9939L51.0812 25.2581ZM50.9447 25.2662C50.9764 25.2642 51.0224 25.2614 51.0812 25.2581L51.0667 24.9939C51.0069 24.9972 50.96 25.0001 50.9276 25.0022L50.9447 25.2662ZM50.9227 25.2677L50.945 25.2662L50.9273 25.0022L50.905 25.0037L50.9227 25.2677ZM50.9115 25.268L50.9118 25.268L50.9159 25.0034L50.9155 25.0034L50.9115 25.268ZM50.832 25.266C50.8676 25.2671 50.8943 25.2677 50.9114 25.268L50.9156 25.0034C50.9 25.0032 50.8748 25.0027 50.8408 25.0015L50.832 25.266ZM50.5161 25.2489C50.6537 25.2587 50.7607 25.2636 50.832 25.266L50.8408 25.0015C50.7726 24.9992 50.669 24.9946 50.535 24.985L50.5161 25.2489ZM49.3665 25.1101C49.844 25.1897 50.2408 25.2293 50.5161 25.2489L50.535 24.985C50.2667 24.9658 49.8782 24.9271 49.41 24.8491L49.3665 25.1101ZM45.8781 24.0012C47.1403 24.6323 48.409 24.9505 49.3665 25.1101L49.41 24.8491C48.4698 24.6924 47.2283 24.3805 45.9964 23.7645L45.8781 24.0012ZM44.273 22.9558C44.6693 23.2251 45.0211 23.4615 45.2972 23.6423C45.5703 23.8211 45.7768 23.9505 45.8781 24.0012L45.9964 23.7645C45.9118 23.7222 45.7194 23.6025 45.4422 23.421C45.1679 23.2414 44.8176 23.006 44.4217 22.737L44.273 22.9558ZM43.4874 22.4201C43.7542 22.6023 44.0202 22.784 44.273 22.9558L44.4217 22.737C44.1692 22.5654 43.9035 22.3839 43.6366 22.2016L43.4874 22.4201ZM43.4963 22.4257L43.4964 22.4257L43.6276 22.196L43.6276 22.196L43.4963 22.4257ZM41.9661 21.3883C42.4094 21.6838 42.9498 22.0529 43.4874 22.4201L43.6366 22.2016C43.0994 21.8347 42.5576 21.4646 42.1129 21.1681L41.9661 21.3883ZM41.4157 22.4524L42.1496 21.3516L41.9294 21.2048L41.1956 22.3056L41.4157 22.4524ZM42.8813 23.2878C42.3481 22.9236 41.8178 22.5614 41.379 22.2689L41.2323 22.489C41.6695 22.7805 42.1985 23.1419 42.7321 23.5063L42.8813 23.2878ZM43.6782 23.8312C43.4192 23.6552 43.1499 23.4713 42.8813 23.2878L42.7321 23.5063C43.0006 23.6897 43.2702 23.8739 43.5295 24.0501L43.6782 23.8312ZM45.4048 24.9478C45.1275 24.8092 44.4261 24.3394 43.6782 23.8312L43.5295 24.0501C44.2678 24.5518 44.9889 25.0357 45.2864 25.1844L45.4048 24.9478ZM49.1925 26.154C48.1657 25.9829 46.7884 25.6396 45.4048 24.9478L45.2864 25.1844C46.7004 25.8914 48.1048 26.241 49.149 26.415L49.1925 26.154ZM50.4407 26.3046C50.1373 26.2829 49.7072 26.2398 49.1925 26.154L49.149 26.415C49.673 26.5024 50.1114 26.5463 50.4219 26.5685L50.4407 26.3046ZM50.7967 26.3237C50.7129 26.3209 50.5925 26.3154 50.4407 26.3046L50.4219 26.5685C50.5773 26.5796 50.701 26.5853 50.7879 26.5882L50.7967 26.3237ZM50.8943 26.3262C50.8713 26.3258 50.8386 26.3251 50.7967 26.3237L50.7879 26.5882C50.8313 26.5896 50.8656 26.5904 50.89 26.5908L50.8943 26.3262ZM50.9219 26.3266L50.8938 26.3262L50.8905 26.5908L50.9186 26.5911L50.9219 26.3266ZM50.9295 26.3266L50.9211 26.3265L50.9195 26.5911L50.9278 26.5912L50.9295 26.3266ZM50.9318 26.3266L50.929 26.3266L50.9283 26.5912L50.931 26.5912L50.9318 26.3266ZM50.9327 26.3266L50.9317 26.3266L50.9312 26.5912L50.9322 26.5912L50.9327 26.3266ZM50.9328 26.3266H50.9324V26.5912H50.9328V26.3266ZM50.8009 25.7974C50.8009 26.1282 50.8009 26.2935 50.8008 26.3761C50.8008 26.4175 50.8007 26.4379 50.8007 26.448C50.8007 26.4505 50.8007 26.4523 50.8006 26.4536C50.8006 26.4542 50.8006 26.4546 50.8006 26.4549C50.8006 26.4553 50.8006 26.4554 50.8006 26.4553C50.8006 26.4553 50.8006 26.4552 50.8006 26.4551C50.8006 26.4549 50.8006 26.4547 50.8007 26.4543C50.8007 26.4539 50.8007 26.4521 50.8009 26.4496C50.801 26.4483 50.8012 26.4458 50.8016 26.4426C50.8019 26.4403 50.8028 26.4327 50.8054 26.4233C50.8067 26.4186 50.8149 26.3868 50.8447 26.3602C50.8628 26.3441 50.8836 26.3343 50.904 26.3298C50.9206 26.3261 50.9351 26.3266 50.9328 26.3266V26.5912C50.9329 26.5912 50.9802 26.5939 51.021 26.5576C51.0508 26.5309 51.059 26.4991 51.0603 26.4945C51.0629 26.485 51.0639 26.4774 51.0642 26.4751C51.0646 26.4718 51.0648 26.4692 51.0648 26.4679C51.0651 26.4638 51.0652 26.4601 51.0652 26.4599C51.0652 26.4576 51.0652 26.4541 51.0653 26.4491C51.0653 26.4385 51.0653 26.4176 51.0654 26.3763C51.0654 26.2936 51.0655 26.1282 51.0655 25.7974H50.8009ZM51.0655 26.4589V25.7974H50.8009V26.4589H51.0655ZM50.9576 26.3266H50.9332V26.5912H50.9576V26.3266ZM50.972 26.3252L50.9478 26.327L50.9673 26.5908L50.9915 26.589L50.972 26.3252ZM50.9683 26.3255L50.9682 26.3255L50.9952 26.5887L50.9953 26.5887L50.9683 26.3255ZM50.9722 26.3252L50.9721 26.3252L50.9915 26.589L50.9916 26.589L50.9722 26.3252ZM50.9739 26.325L50.9739 26.325L50.9899 26.5892L50.9899 26.5892L50.9739 26.325ZM50.9739 26.325L50.9724 26.3251L50.9914 26.5891L50.9929 26.5889L50.9739 26.325ZM50.9814 26.3245L50.9741 26.325L50.9927 26.589L51 26.5884L50.9814 26.3245ZM51.013 26.3224L50.9818 26.3245L50.9995 26.5885L51.0306 26.5864L51.013 26.3224ZM51.1394 26.3149C51.0841 26.3179 51.0416 26.3205 51.0132 26.3224L51.0304 26.5864C51.0579 26.5846 51.0996 26.5821 51.1539 26.5791L51.1394 26.3149ZM51.6103 26.2948C51.4108 26.3011 51.2498 26.3088 51.1394 26.3149L51.1539 26.5791C51.2625 26.5731 51.4214 26.5655 51.6187 26.5592L51.6103 26.2948ZM53.171 26.2972C52.5618 26.275 52.0099 26.2821 51.6103 26.2948L51.6187 26.5592C52.014 26.5467 52.5596 26.5397 53.1614 26.5616L53.171 26.2972ZM55.5626 26.5696C54.8314 26.4059 53.9759 26.3265 53.171 26.2972L53.1614 26.5616C53.9581 26.5906 54.7957 26.6691 55.5048 26.8278L55.5626 26.5696ZM48.1202 31.2487C51.1264 30.2466 53.6018 28.6814 55.6239 26.7954L55.4435 26.6019C53.4474 28.4636 51.0045 30.0083 48.0365 30.9977L48.1202 31.2487ZM48.6222 32.3364L48.2038 31.0813L47.9528 31.165L48.3712 32.4201L48.6222 32.3364ZM56.8068 27.1267C54.6063 29.3008 51.8569 31.1187 48.4549 32.2527L48.5385 32.5037C51.9818 31.356 54.7656 29.5153 56.9928 27.315L56.8068 27.1267ZM59.3071 29.4144C58.6883 28.4249 57.7717 27.5892 56.9678 27.1074L56.8318 27.3343C57.6024 27.7963 58.4877 28.6031 59.0828 29.5547L59.3071 29.4144ZM59.7205 32.837C60.2671 31.7438 60.0076 30.5344 59.3071 29.4144L59.0828 29.5547C59.7567 30.6324 59.9733 31.7398 59.4838 32.7186L59.7205 32.837ZM60.8446 33.2511L59.6613 32.6595L59.543 32.8961L60.7263 33.4878L60.8446 33.2511ZM60.2045 28.8532C61.0091 30.1399 61.4433 31.758 60.6671 33.3103L60.9038 33.4286C61.7375 31.7612 61.2592 30.0408 60.4288 28.713L60.2045 28.8532ZM57.7585 26.3549C58.64 26.9362 59.5601 27.8228 60.2045 28.8532L60.4288 28.713C59.7625 27.6476 58.8145 26.7343 57.9041 26.134L57.7585 26.3549ZM58.6568 25.0641C58.3617 25.4349 58.0539 25.7992 57.733 26.156L57.9297 26.333C58.2543 25.9721 58.5655 25.6037 58.8638 25.2289L58.6568 25.0641ZM67.4016 27.6451C64.2374 27.2324 61.374 26.2864 58.8188 25.0278L58.7018 25.2652C61.2804 26.5352 64.1717 27.4906 67.3673 27.9075L67.4016 27.6451ZM67.4244 26.4473L67.2533 27.7592L67.5156 27.7934L67.6867 26.4816L67.4244 26.4473ZM59.5136 24.1876C61.9164 25.3444 64.5944 26.2116 67.5384 26.5956L67.5727 26.3333C64.6592 25.9532 62.0083 25.095 59.6284 23.9492L59.5136 24.1876ZM60.853 21.8115C60.4311 22.5507 59.9686 23.2802 59.4631 23.9918L59.6788 24.145C60.1897 23.426 60.6568 22.6891 61.0828 21.9427L60.853 21.8115ZM64.2911 21.6805C63.0553 21.9894 61.8362 21.9327 60.9964 21.7479L60.9395 22.0063C61.815 22.199 63.0758 22.2571 64.3552 21.9372L64.2911 21.6805ZM67.8895 19.0919C67.0246 20.2163 65.775 21.3095 64.2911 21.6805L64.3552 21.9372C65.9197 21.5461 67.2154 20.4023 68.0993 19.2533L67.8895 19.0919ZM68.9244 17.384C68.679 17.9305 68.3265 18.5239 67.8895 19.0919L68.0993 19.2533C68.548 18.6699 68.9114 18.0588 69.1658 17.4924L68.9244 17.384ZM69.3222 15.8753C69.3222 16.3153 69.1641 16.8501 68.9244 17.384L69.1658 17.4924C69.4117 16.9446 69.5868 16.3698 69.5868 15.8753H69.3222ZM68.1316 16.0076H69.4545V15.743H68.1316V16.0076ZM67.9589 16.9505C68.1739 16.4717 68.2639 16.097 68.2639 15.8753H67.9993C67.9993 16.0423 67.9264 16.377 67.7175 16.8422L67.9589 16.9505ZM67.0507 18.4466C67.4405 17.9398 67.7495 17.417 67.9589 16.9505L67.7175 16.8422C67.5171 17.2886 67.219 17.7938 66.8409 18.2853L67.0507 18.4466ZM64.0344 20.6537C65.1963 20.3633 66.2618 19.4721 67.0507 18.4466L66.8409 18.2853C66.0712 19.286 65.0517 20.1267 63.9702 20.3971L64.0344 20.6537ZM61.609 20.7827C62.2701 20.8746 63.1458 20.8759 64.0344 20.6537L63.9702 20.3971C63.1194 20.6097 62.2784 20.6087 61.6454 20.5207L61.609 20.7827ZM64.6917 8.6168C64.5858 11.7931 63.6876 16.2905 61.5092 20.5919L61.7452 20.7115C63.9424 16.3731 64.8491 11.8375 64.9562 8.62562L64.6917 8.6168ZM63.4973 8.70936L64.8195 8.75343L64.8284 8.48899L63.5061 8.44491L63.4973 8.70936ZM60.446 20.3458C62.6345 16.1257 63.5308 11.676 63.634 8.58154L63.3695 8.57273C63.2676 11.6311 62.38 16.0418 60.2112 20.224L60.446 20.3458ZM57.1283 16.9979C57.7445 18.5042 58.633 19.7231 60.2778 20.4071L60.3794 20.1628C58.8207 19.5146 57.9728 18.3636 57.3732 16.8977L57.1283 16.9979ZM56.2521 14.1529C56.5104 15.1656 56.7715 16.1259 57.1283 16.9979L57.3732 16.8977C57.0241 16.0444 56.7668 15.1002 56.5084 14.0875L56.2521 14.1529ZM56.1428 13.722C56.1794 13.8666 56.2157 14.0104 56.2521 14.1529L56.5084 14.0875C56.4722 13.9453 56.4359 13.8018 56.3993 13.6572L56.1428 13.722ZM56.1427 13.7217L56.1429 13.7222L56.3993 13.6569L56.3991 13.6565L56.1427 13.7217ZM55.4041 11.0777C55.6941 11.9477 55.9224 12.8501 56.1427 13.7215L56.3992 13.6567C56.1793 12.7869 55.9488 11.8749 55.6552 10.994L55.4041 11.0777ZM53.3411 6.29723C54.0628 7.25958 54.5056 8.38209 55.4041 11.0777L55.6552 10.994C54.7591 8.30577 54.3046 7.14095 53.5527 6.13847L53.3411 6.29723ZM52.4679 7.11745L53.5263 6.32369L53.3675 6.11201L52.3092 6.90578L52.4679 7.11745Z" fill="#254F5A" mask="url(#path-3-outside-1_205_197)"/>
</svg>
